<?xml version="1.0" encoding="UTF-8" standalone="no"?>
<!DOCTYPE svg PUBLIC "-//W3C//DTD SVG 1.1//EN"
 "http://www.w3.org/Graphics/SVG/1.1/DTD/svg11.dtd">
<!-- Generated by graphviz version 2.43.0 (0)
 -->
<!-- Title: G Pages: 1 -->
<svg width="198pt" height="210pt"
 viewBox="0.00 0.00 197.56 209.98" xmlns="http://www.w3.org/2000/svg" xmlns:xlink="http://www.w3.org/1999/xlink">
<g id="graph0" class="graph" transform="scale(1 1) rotate(0) translate(4 205.98)">
<title>G</title><style>.edge>path:hover{stroke-width:8}</style>
<polygon fill="white" stroke="transparent" points="-4,4 -4,-205.98 193.56,-205.98 193.56,4 -4,4"/>
<!-- axo_core -->
<g id="node1" class="node">
<title>axo_core</title><style>.edge>path:hover{stroke-width:8}</style>
<polygon fill="blue" stroke="black" points="110.08,-36 52.08,-36 52.08,0 110.08,0 110.08,-36"/>
<text text-anchor="middle" x="81.08" y="-15.5" font-family="Helvetica,sans-Serif" font-size="10.00" fill="white">axo.core</text>
</g>
<!-- axo_core_axo -->
<g id="node2" class="node">
<title>axo_core_axo</title><style>.edge>path:hover{stroke-width:8}</style>
<polygon fill="blue" stroke="black" points="154.08,-108 76.08,-108 76.08,-72 154.08,-72 154.08,-108"/>
<text text-anchor="middle" x="115.08" y="-87.5" font-family="Helvetica,sans-Serif" font-size="10.00" fill="white">axo.core.axo</text>
</g>
<!-- axo_core_axo&#45;&gt;axo_core -->
<g id="edge1" class="edge">
<title>axo_core_axo&#45;&gt;axo_core</title><style>.edge>path:hover{stroke-width:8}</style>
<path fill="none" stroke="black" d="M106.68,-71.7C102.81,-63.73 98.13,-54.1 93.84,-45.26"/>
<polygon fill="blue" stroke="black" points="96.91,-43.57 89.39,-36.1 90.61,-46.63 96.91,-43.57"/>
</g>
<!-- axo_core_decorators -->
<g id="node3" class="node">
<title>axo_core_decorators</title><style>.edge>path:hover{stroke-width:8}</style>
<ellipse fill="#c24747" stroke="black" cx="48.08" cy="-172.99" rx="48.17" ry="28.98"/>
<text text-anchor="middle" x="48.08" y="-181.49" font-family="Helvetica,sans-Serif" font-size="10.00" fill="#ffffff">axo.</text>
<text text-anchor="middle" x="48.08" y="-170.49" font-family="Helvetica,sans-Serif" font-size="10.00" fill="#ffffff">core.</text>
<text text-anchor="middle" x="48.08" y="-159.49" font-family="Helvetica,sans-Serif" font-size="10.00" fill="#ffffff">decorators</text>
</g>
<!-- axo_core_decorators&#45;&gt;axo_core -->
<g id="edge2" class="edge">
<title>axo_core_decorators&#45;&gt;axo_core</title><style>.edge>path:hover{stroke-width:8}</style>
<path fill="none" stroke="black" d="M52.88,-143.87C56.44,-123.77 61.61,-96.13 67.08,-72 69.01,-63.52 71.34,-54.33 73.55,-46.03"/>
<polygon fill="#c24747" stroke="black" points="77,-46.68 76.24,-36.11 70.24,-44.85 77,-46.68"/>
</g>
<!-- axo_core_decorators&#45;&gt;axo_core_axo -->
<g id="edge3" class="edge">
<title>axo_core_decorators&#45;&gt;axo_core_axo</title><style>.edge>path:hover{stroke-width:8}</style>
<path fill="none" stroke="black" d="M68.92,-146.81C77.02,-137.01 86.28,-125.82 94.37,-116.04"/>
<polygon fill="#c24747" stroke="black" points="97.16,-118.15 100.84,-108.21 91.77,-113.69 97.16,-118.15"/>
</g>
<!-- axo_core_models -->
<g id="node4" class="node">
<title>axo_core_models</title><style>.edge>path:hover{stroke-width:8}</style>
<ellipse fill="#b65353" stroke="black" cx="152.08" cy="-172.99" rx="37.45" ry="28.98"/>
<text text-anchor="middle" x="152.08" y="-181.49" font-family="Helvetica,sans-Serif" font-size="10.00" fill="#ffffff">axo.</text>
<text text-anchor="middle" x="152.08" y="-170.49" font-family="Helvetica,sans-Serif" font-size="10.00" fill="#ffffff">core.</text>
<text text-anchor="middle" x="152.08" y="-159.49" font-family="Helvetica,sans-Serif" font-size="10.00" fill="#ffffff">models</text>
</g>
<!-- axo_core_models&#45;&gt;axo_core_axo -->
<g id="edge4" class="edge">
<title>axo_core_models&#45;&gt;axo_core_axo</title><style>.edge>path:hover{stroke-width:8}</style>
<path fill="none" stroke="black" d="M139.97,-145.47C135.88,-136.53 131.32,-126.55 127.23,-117.6"/>
<polygon fill="#b65353" stroke="black" points="130.37,-116.03 123.03,-108.39 124,-118.94 130.37,-116.03"/>
</g>
</g>
</svg>
